# xmcd
#
# Track frame offsets: 
#        150
#        15024
#        27357
#        43671
#        57712
#        76342
#        96315
#        115060
#        131548
#        147032
#        164913
#        187053
#        210869
#
# Disc length: 2856 seconds
#
# Revision: 0
# Processed by: cddbd v1.5.1PL0 Copyright (c) Steve Scherf et al.
# Submitted via: ExactAudioCopy v0.95a5
#
DISCID=ae0b260d
DTITLE=Beaver Nelson - Motion
DYEAR=2004
DGENRE=Americana
TTITLE0=Let Us Build A Monument
TTITLE1=It Really Shouldn't Be So Hard
TTITLE2=Minute Man
TTITLE3=Tell Me
TTITLE4=Good, Good, Good
TTITLE5=It Is There
TTITLE6=Orion's Belt
TTITLE7=The Unfortunately Entitled Hey Little Mockingbird
TTITLE8=Too Many Words
TTITLE9=Webs On A Hubcap
TTITLE10=Got's To Go
TTITLE11=Loving Arms Of God
TTITLE12=Now I Can Turn Back To You
EXTD=
EXTT0=
EXTT1=
EXTT2=
EXTT3=
EXTT4=
EXTT5=
EXTT6=
EXTT7=
EXTT8=
EXTT9=
EXTT10=
EXTT11=
EXTT12=
PLAYORDER=
